<svg xmlns="http://www.w3.org/2000/svg" width="512" height="512" viewBox="0 0 512 512">
  <defs>
    <linearGradient id="sky" x1="0" y1="0" x2="0" y2="1">
      <stop offset="0" stop-color="#aee4ff"/>
      <stop offset="1" stop-color="#fff0fb"/>
    </linearGradient>
  </defs>
  <rect width="512" height="512" rx="96" fill="url(#sky)"/>
  <circle cx="120" cy="120" r="40" fill="#fff" opacity="0.9"/>
  <circle cx="160" cy="130" r="30" fill="#fff" opacity="0.9"/>
  <!-- גג מפוספס -->
  <rect x="96" y="180" width="320" height="46" rx="18" fill="#ff5ca8"/>
  <rect x="120" y="180" width="40" height="46" fill="#fff"/>
  <rect x="200" y="180" width="40" height="46" fill="#fff"/>
  <rect x="280" y="180" width="40" height="46" fill="#fff"/>
  <rect x="360" y="180" width="30" height="46" fill="#fff"/>
  <!-- חלון -->
  <rect x="120" y="232" width="110" height="80" rx="14" fill="#d9f3ff" stroke="#fff" stroke-width="8"/>
  <!-- גוף -->
  <rect x="96" y="300" width="320" height="90" rx="22" fill="#ffd24c"/>
  <!-- גלגלים -->
  <circle cx="176" cy="404" r="34" fill="#5a3d5c"/>
  <circle cx="176" cy="404" r="14" fill="#d9d9e8"/>
  <circle cx="336" cy="404" r="34" fill="#5a3d5c"/>
  <circle cx="336" cy="404" r="14" fill="#d9d9e8"/>
  <!-- אלה -->
  <text x="175" y="290" font-size="64" text-anchor="middle">👧</text>
  <!-- אוכל -->
  <text x="256" y="362" font-size="48" text-anchor="middle">🍔🍕🍦</text>
</svg>
