<svg xmlns="http://www.w3.org/2000/svg" viewBox="0 0 200 220" width="200" height="220">
  <path d="M44 220 Q44 156 100 156 Q156 156 156 220 Z" fill="#ffd24c"/>
  <!-- אוזניים -->
  <path d="M54 96 L46 40 L96 76 Z" fill="#ff7a3c"/>
  <path d="M146 96 L154 40 L104 76 Z" fill="#ff7a3c"/>
  <path d="M58 86 L54 56 L82 76 Z" fill="#3a2a2a"/>
  <path d="M142 86 L146 56 L118 76 Z" fill="#3a2a2a"/>
  <!-- ראש -->
  <circle cx="100" cy="102" r="54" fill="#ff8a3c"/>
  <!-- לחי לבנה / חוטם -->
  <path d="M100 78 Q66 96 70 130 Q100 150 130 130 Q134 96 100 78 Z" fill="#fff4e6"/>
  <circle cx="80" cy="100" r="8" fill="#3a2a2a"/>
  <circle cx="120" cy="100" r="8" fill="#3a2a2a"/>
  <circle cx="83" cy="97" r="3" fill="#fff"/>
  <circle cx="123" cy="97" r="3" fill="#fff"/>
  <path d="M94 120 L106 120 L100 128 Z" fill="#3a2a2a"/>
  <path d="M100 128 V133 M100 133 Q92 139 87 134 M100 133 Q108 139 113 134" fill="none" stroke="#c96a3a" stroke-width="3" stroke-linecap="round"/>
</svg>
