<svg xmlns="http://www.w3.org/2000/svg" viewBox="0 0 200 220" width="200" height="220">
  <path d="M44 220 Q44 156 100 156 Q156 156 156 220 Z" fill="#7ec8ff"/>
  <!-- אוזניים -->
  <circle cx="58" cy="66" r="24" fill="#b07a4e"/>
  <circle cx="142" cy="66" r="24" fill="#b07a4e"/>
  <circle cx="58" cy="66" r="12" fill="#d8a878"/>
  <circle cx="142" cy="66" r="12" fill="#d8a878"/>
  <!-- ראש -->
  <circle cx="100" cy="104" r="56" fill="#b07a4e"/>
  <!-- חוטם -->
  <ellipse cx="100" cy="120" rx="30" ry="24" fill="#e0c19a"/>
  <circle cx="80" cy="98" r="8" fill="#3a2a2a"/>
  <circle cx="120" cy="98" r="8" fill="#3a2a2a"/>
  <circle cx="83" cy="95" r="3" fill="#fff"/>
  <circle cx="123" cy="95" r="3" fill="#fff"/>
  <ellipse cx="100" cy="112" rx="9" ry="6" fill="#3a2a2a"/>
  <path d="M100 118 V124 M100 124 Q92 130 86 125 M100 124 Q108 130 114 125" fill="none" stroke="#6b4a30" stroke-width="3" stroke-linecap="round"/>
</svg>
