<svg xmlns="http://www.w3.org/2000/svg" viewBox="0 0 200 220" width="200" height="220">
  <path d="M44 220 Q44 156 100 156 Q156 156 156 220 Z" fill="#ffb84d"/>
  <!-- אוזניים תלויות -->
  <ellipse cx="50" cy="112" rx="20" ry="40" fill="#a06a3c"/>
  <ellipse cx="150" cy="112" rx="20" ry="40" fill="#a06a3c"/>
  <!-- ראש -->
  <circle cx="100" cy="100" r="54" fill="#c98a52"/>
  <!-- חוטם -->
  <ellipse cx="100" cy="118" rx="30" ry="24" fill="#f0d8b8"/>
  <circle cx="80" cy="96" r="8" fill="#3a2a2a"/>
  <circle cx="120" cy="96" r="8" fill="#3a2a2a"/>
  <circle cx="83" cy="93" r="3" fill="#fff"/>
  <circle cx="123" cy="93" r="3" fill="#fff"/>
  <ellipse cx="100" cy="110" rx="10" ry="7" fill="#3a2a2a"/>
  <path d="M100 117 V124 M100 124 Q92 130 86 125 M100 124 Q108 130 114 125" fill="none" stroke="#8a5a30" stroke-width="3" stroke-linecap="round"/>
  <path d="M100 126 Q108 138 118 132" fill="#ff7a8a"/>
</svg>
