<svg xmlns="http://www.w3.org/2000/svg" viewBox="0 0 200 220" width="200" height="220">
  <path d="M44 220 Q44 156 100 156 Q156 156 156 220 Z" fill="#ffd6e8"/>
  <!-- אוזניים -->
  <ellipse cx="76" cy="48" rx="16" ry="46" fill="#ffffff" transform="rotate(-10 76 48)"/>
  <ellipse cx="124" cy="48" rx="16" ry="46" fill="#ffffff" transform="rotate(10 124 48)"/>
  <ellipse cx="76" cy="50" rx="7" ry="30" fill="#ffb3d1" transform="rotate(-10 76 50)"/>
  <ellipse cx="124" cy="50" rx="7" ry="30" fill="#ffb3d1" transform="rotate(10 124 50)"/>
  <!-- ראש -->
  <circle cx="100" cy="104" r="54" fill="#ffffff"/>
  <circle cx="80" cy="100" r="8" fill="#3a2a2a"/>
  <circle cx="120" cy="100" r="8" fill="#3a2a2a"/>
  <circle cx="83" cy="97" r="3" fill="#fff"/>
  <circle cx="123" cy="97" r="3" fill="#fff"/>
  <circle cx="66" cy="118" r="9" fill="#ffb3c8" opacity="0.8"/>
  <circle cx="134" cy="118" r="9" fill="#ffb3c8" opacity="0.8"/>
  <!-- אף + פה -->
  <ellipse cx="100" cy="116" rx="7" ry="5" fill="#ff8ab0"/>
  <path d="M100 121 V128 M100 128 Q90 134 84 128 M100 128 Q110 134 116 128" fill="none" stroke="#c98aa0" stroke-width="3" stroke-linecap="round"/>
  <!-- שיניים -->
  <rect x="94" y="128" width="12" height="10" rx="2" fill="#fff" stroke="#e0d0d8" stroke-width="1"/>
</svg>
