<svg xmlns="http://www.w3.org/2000/svg" viewBox="0 0 200 220" width="200" height="220">
  <path d="M40 220 Q40 150 100 150 Q160 150 160 220 Z" fill="#34c79a"/>
  <rect x="90" y="128" width="20" height="24" rx="9" fill="#f0b88a"/>
  <!-- צמות -->
  <circle cx="46" cy="100" r="20" fill="#8a5a3c"/>
  <circle cx="154" cy="100" r="20" fill="#8a5a3c"/>
  <circle cx="44" cy="140" r="14" fill="#8a5a3c"/>
  <circle cx="156" cy="140" r="14" fill="#8a5a3c"/>
  <circle cx="46" cy="100" r="9" fill="#ffd24c"/>
  <circle cx="154" cy="100" r="9" fill="#ffd24c"/>
  <circle cx="100" cy="92" r="52" fill="#fbcf9e"/>
  <!-- שיער קדמי -->
  <path d="M50 88 Q48 38 100 38 Q152 38 150 88 Q140 60 100 58 Q60 60 50 88 Z" fill="#8a5a3c"/>
  <circle cx="80" cy="92" r="8" fill="#3a2a2a"/>
  <circle cx="120" cy="92" r="8" fill="#3a2a2a"/>
  <circle cx="83" cy="89" r="3" fill="#fff"/>
  <circle cx="123" cy="89" r="3" fill="#fff"/>
  <circle cx="68" cy="108" r="9" fill="#ff9eb0" opacity="0.7"/>
  <circle cx="132" cy="108" r="9" fill="#ff9eb0" opacity="0.7"/>
  <path d="M84 112 Q100 128 116 112" fill="none" stroke="#b5654a" stroke-width="5" stroke-linecap="round"/>
</svg>
