<svg xmlns="http://www.w3.org/2000/svg" viewBox="0 0 200 220" width="200" height="220">
  <path d="M44 220 Q44 156 100 156 Q156 156 156 220 Z" fill="#ffd24c"/>
  <!-- אוזניים גדולות -->
  <circle cx="56" cy="62" r="30" fill="#b9b9c8"/>
  <circle cx="144" cy="62" r="30" fill="#b9b9c8"/>
  <circle cx="56" cy="62" r="17" fill="#ffc2d6"/>
  <circle cx="144" cy="62" r="17" fill="#ffc2d6"/>
  <!-- ראש -->
  <circle cx="100" cy="104" r="52" fill="#c4c4d0"/>
  <circle cx="80" cy="100" r="8" fill="#3a2a2a"/>
  <circle cx="120" cy="100" r="8" fill="#3a2a2a"/>
  <circle cx="83" cy="97" r="3" fill="#fff"/>
  <circle cx="123" cy="97" r="3" fill="#fff"/>
  <circle cx="66" cy="116" r="8" fill="#ff9eb0" opacity="0.6"/>
  <circle cx="134" cy="116" r="8" fill="#ff9eb0" opacity="0.6"/>
  <ellipse cx="100" cy="116" rx="7" ry="5" fill="#ff8ab0"/>
  <path d="M100 121 V127 M100 127 Q92 133 86 128 M100 127 Q108 133 114 128" fill="none" stroke="#9a9aa8" stroke-width="3" stroke-linecap="round"/>
  <path d="M58 112 H32 M60 120 H36 M142 112 H168 M140 120 H164" stroke="#fff" stroke-width="2.5" stroke-linecap="round"/>
</svg>
