<svg xmlns="http://www.w3.org/2000/svg" viewBox="0 0 200 220" width="200" height="220">
  <!-- גוף / סינר -->
  <path d="M40 220 Q40 150 100 150 Q160 150 160 220 Z" fill="#ff8ac4"/>
  <path d="M78 152 H122 V200 Q100 210 78 200 Z" fill="#fff5fb"/>
  <circle cx="100" cy="170" r="5" fill="#ff5ca8"/>
  <circle cx="100" cy="188" r="5" fill="#ff5ca8"/>
  <!-- צוואר -->
  <rect x="90" y="128" width="20" height="24" rx="9" fill="#f5c193"/>
  <!-- שיער מאחור -->
  <path d="M44 96 Q40 175 70 178 L70 120 Z" fill="#ffcf5a"/>
  <path d="M156 96 Q160 175 130 178 L130 120 Z" fill="#ffcf5a"/>
  <!-- ראש -->
  <circle cx="100" cy="92" r="52" fill="#ffd9b3"/>
  <!-- שיער קדמי + פוני -->
  <path d="M52 86 Q50 40 100 40 Q150 40 148 86 Q140 64 100 62 Q60 64 52 86 Z" fill="#ffcf5a"/>
  <circle cx="58" cy="92" r="12" fill="#ffcf5a"/>
  <circle cx="142" cy="92" r="12" fill="#ffcf5a"/>
  <!-- כובע טבחים -->
  <ellipse cx="100" cy="34" rx="42" ry="20" fill="#ffffff"/>
  <circle cx="70" cy="30" r="18" fill="#ffffff"/>
  <circle cx="100" cy="22" r="20" fill="#ffffff"/>
  <circle cx="130" cy="30" r="18" fill="#ffffff"/>
  <rect x="60" y="44" width="80" height="14" rx="7" fill="#ffe9f4"/>
  <!-- עיניים -->
  <circle cx="80" cy="92" r="8" fill="#4a3a2a"/>
  <circle cx="120" cy="92" r="8" fill="#4a3a2a"/>
  <circle cx="83" cy="89" r="3" fill="#fff"/>
  <circle cx="123" cy="89" r="3" fill="#fff"/>
  <!-- לחיים -->
  <circle cx="68" cy="108" r="9" fill="#ff9eb0" opacity="0.7"/>
  <circle cx="132" cy="108" r="9" fill="#ff9eb0" opacity="0.7"/>
  <!-- חיוך -->
  <path d="M84 112 Q100 128 116 112" fill="none" stroke="#b5654a" stroke-width="5" stroke-linecap="round"/>
</svg>
