<svg xmlns="http://www.w3.org/2000/svg" viewBox="0 0 120 120" width="120" height="120">
  <!-- בצק (טבעת) -->
  <path d="M60 22 a38 38 0 1 0 0.01 0 Z M60 44 a16 16 0 1 1 -0.01 0 Z" fill-rule="evenodd" fill="#d99a52"/>
  <!-- ציפוי ורוד עם נטיפות -->
  <path d="M60 26 a34 34 0 1 0 0.01 0 Z M60 46 a14 14 0 1 1 -0.01 0 Z" fill-rule="evenodd" fill="#ff8ac4"/>
  <path d="M26 60 q4 12 -2 16 q10 4 12 -6 q8 10 14 0 q6 10 14 2 q8 8 14 -2 q8 8 14 -4 q6 6 12 -4 q-6 -10 -10 -2 q-8 -8 -14 2 q-8 -8 -14 2 q-8 -8 -14 0 q-8 -8 -14 2 q-6 -6 -12 -2 Z" fill="#ff8ac4" opacity="0.0"/>
  <!-- סוכריות -->
  <rect x="44" y="34" width="9" height="4" rx="2" fill="#ffe14d" transform="rotate(30 48 36)"/>
  <rect x="74" y="40" width="9" height="4" rx="2" fill="#5fd0ff" transform="rotate(-20 78 42)"/>
  <rect x="84" y="64" width="9" height="4" rx="2" fill="#7ee06a" transform="rotate(50 88 66)"/>
  <rect x="68" y="84" width="9" height="4" rx="2" fill="#ffe14d" transform="rotate(10 72 86)"/>
  <rect x="38" y="78" width="9" height="4" rx="2" fill="#a06bff" transform="rotate(-40 42 80)"/>
  <rect x="30" y="48" width="9" height="4" rx="2" fill="#5fd0ff" transform="rotate(70 34 50)"/>
  <rect x="56" y="30" width="9" height="4" rx="2" fill="#7ee06a" transform="rotate(-10 60 32)"/>
</svg>
